<svg width="15" height="15" viewBox="0 0 15 15" fill="none" xmlns="http://www.w3.org/2000/svg">
<g id="&#231;&#188;&#150;&#231;&#187;&#132;">
<mask id="mask0_16_896" style="mask-type:luminance" maskUnits="userSpaceOnUse" x="0" y="0" width="15" height="15">
<path id="Clip 2" fill-rule="evenodd" clip-rule="evenodd" d="M0 0H15V15H0V0Z" fill="white"/>
</mask>
<g mask="url(#mask0_16_896)">
<circle id="&#230;&#164;&#173;&#229;&#156;&#134;&#229;&#189;&#162;" cx="7.5" cy="6.5" r="5.5" fill="#BCBCBC"/>
<path id="Fill 1" fill-rule="evenodd" clip-rule="evenodd" d="M11.3824 5.60995L6.67362 10.0972C6.40909 10.3487 5.99505 10.353 5.72517 10.1079L3.8938 8.44405C3.60936 8.18583 3.588 7.74511 3.84671 7.46068C4.10446 7.17626 4.54519 7.1549 4.82963 7.41312L6.18144 8.64257L10.4237 4.60377C10.6019 4.42079 10.865 4.34944 11.1106 4.41836C11.3562 4.48728 11.544 4.68483 11.6013 4.93286C11.6581 5.18137 11.5746 5.44104 11.3834 5.60995H11.3824ZM0 7.5C0 11.6422 3.35793 15 7.49976 15C11.6421 15 15 11.6422 15 7.5C15 3.35782 11.6421 0 7.49976 0C3.35793 0 0 3.35782 0 7.5Z" fill="white"/>
</g>
</g>
</svg>
