<svg width="15" height="15" viewBox="0 0 15 15" fill="none" xmlns="http://www.w3.org/2000/svg">
<g id="&#231;&#188;&#150;&#231;&#187;&#132;">
<mask id="mask0_16_354" style="mask-type:luminance" maskUnits="userSpaceOnUse" x="0" y="0" width="15" height="15">
<path id="Clip 2" fill-rule="evenodd" clip-rule="evenodd" d="M0 0H14.6679V14.6676H0V0Z" fill="white"/>
</mask>
<g mask="url(#mask0_16_354)">
<path id="Fill 1" fill-rule="evenodd" clip-rule="evenodd" d="M7.2739 4.47657L9.3639 6.56657L9.8819 7.08457C9.9509 7.15357 9.9899 7.24757 9.9899 7.34457C9.9899 7.44157 9.9509 7.53557 9.8819 7.60357L7.2899 10.1966C7.2209 10.2656 7.1279 10.3036 7.0299 10.3036C6.9329 10.3036 6.8389 10.2656 6.7709 10.1966L6.2529 9.67757C6.1089 9.53557 6.1089 9.30257 6.2529 9.15957L7.3439 8.06757H0.366901C0.269901 8.06757 0.175901 8.02857 0.106901 7.95957C0.0389008 7.89157 -9.91821e-05 7.79757 -9.91821e-05 7.70057V6.96657C-9.91821e-05 6.87057 0.0389008 6.77657 0.106901 6.70757C0.175901 6.63957 0.269901 6.60057 0.366901 6.60057H7.3239L6.2359 5.51357C6.1679 5.44557 6.1289 5.35157 6.1289 5.25357C6.1289 5.15757 6.1679 5.06357 6.2359 4.99557L6.7549 4.47657C6.8239 4.40757 6.9169 4.36957 7.0149 4.36957C7.1119 4.36957 7.2049 4.40757 7.2739 4.47657ZM13.9349 -0.000427246C14.3049 -0.000427246 14.6359 0.330573 14.6659 0.683573L14.6679 0.733573V13.9346C14.6679 14.2876 14.3539 14.6346 13.9869 14.6656L13.9349 14.6676H0.732901C0.362901 14.6676 0.0319008 14.3366 0.00190082 13.9846L-9.91821e-05 13.9346V9.53457H1.4669V13.2016H13.2009V1.46657H1.4669V5.13357H-9.91821e-05V0.733573C-9.91821e-05 0.380573 0.314901 0.0335728 0.680901 0.00157275L0.732901 -0.000427246H13.9349Z" fill="#3F6DFF"/>
</g>
</g>
</svg>
