<svg width="15" height="15" viewBox="0 0 15 15" fill="none" xmlns="http://www.w3.org/2000/svg">
<g id="&#231;&#188;&#150;&#231;&#187;&#132;">
<mask id="mask0_16_686" style="mask-type:luminance" maskUnits="userSpaceOnUse" x="0" y="0" width="15" height="15">
<path id="Clip 2" fill-rule="evenodd" clip-rule="evenodd" d="M0 0H15V15H0V0Z" fill="white"/>
</mask>
<g mask="url(#mask0_16_686)">
<circle id="&#230;&#164;&#173;&#229;&#156;&#134;&#229;&#189;&#162;" cx="8.5" cy="6.5" r="5.5" fill="#EC8602"/>
<path id="Fill 1" fill-rule="evenodd" clip-rule="evenodd" d="M10.9436 10.2285L8.07113 7.35637V3.27187C8.07113 2.91788 7.78387 2.63025 7.4295 2.63025C7.0755 2.63025 6.78787 2.91788 6.78787 3.27187V7.52475C6.7605 7.71787 6.82087 7.92075 6.96937 8.06925L10.0361 11.136C10.287 11.3865 10.6931 11.3865 10.9436 11.136C11.1941 10.8855 11.1941 10.479 10.9436 10.2285ZM15 7.5C15 11.6423 11.6423 15 7.5 15C3.35813 15 0 11.6423 0 7.5C0 3.35813 3.35813 0 7.5 0C11.6423 0 15 3.35813 15 7.5Z" fill="white"/>
</g>
</g>
</svg>
