<svg width="17" height="18" viewBox="0 0 17 18" fill="none" xmlns="http://www.w3.org/2000/svg">
<g id="&#231;&#188;&#150;&#231;&#187;&#132;">
<mask id="mask0_16_259" style="mask-type:luminance" maskUnits="userSpaceOnUse" x="0" y="0" width="17" height="18">
<path id="Clip 2" fill-rule="evenodd" clip-rule="evenodd" d="M0 0H16.042V17.1726H0V0Z" fill="white"/>
</mask>
<g mask="url(#mask0_16_259)">
<path id="Fill 1" fill-rule="evenodd" clip-rule="evenodd" d="M8.021 15.9386C3.902 15.9386 1.443 15.1186 1.232 14.7046V11.9126C2.916 12.7086 5.96 12.9586 8.021 12.9586C10.084 12.9586 13.133 12.7086 14.815 11.9086L14.816 14.6606C14.597 15.1186 12.14 15.9386 8.021 15.9386ZM8.021 1.2336C12.011 1.2336 14.442 2.0016 14.79 2.4676C14.441 2.9326 12.011 3.7026 8.021 3.7026C4.031 3.7026 1.6 2.9346 1.252 2.4676C1.6 2.0016 4.031 1.2336 8.021 1.2336ZM8.021 7.4056C3.931 7.4056 1.48 6.5966 1.232 6.1376V3.8906C2.916 4.6866 5.96 4.9366 8.021 4.9366C10.082 4.9366 13.126 4.6866 14.81 3.8906L14.812 6.1346C14.572 6.5936 12.12 7.4056 8.021 7.4056ZM1.232 7.5916C2.916 8.3886 5.96 8.6376 8.021 8.6376C10.082 8.6376 13.129 8.3886 14.812 7.5896L14.813 10.4496C14.583 10.9096 12.128 11.7236 8.02 11.7236C3.929 11.7236 1.479 10.9166 1.23 10.4566V7.5916H1.232ZM8.021 -0.000400543C5.041 -0.000400543 0 0.519599 0 2.4676V14.7046C0 16.6536 5.041 17.1726 8.021 17.1726C11.001 17.1726 16.042 16.6536 16.042 14.7046V2.4676C16.042 0.519599 11.001 -0.000400543 8.021 -0.000400543Z" fill="black"/>
</g>
</g>
</svg>
