<svg width="21" height="17" viewBox="0 0 21 17" fill="none" xmlns="http://www.w3.org/2000/svg">
<g id="&#231;&#188;&#150;&#231;&#187;&#132;">
<g id="&#231;&#188;&#150;&#231;&#187;&#132;_2">
<mask id="mask0_16_187" style="mask-type:luminance" maskUnits="userSpaceOnUse" x="0" y="0" width="21" height="17">
<path id="Clip 2" fill-rule="evenodd" clip-rule="evenodd" d="M0 0H21V17H0V0Z" fill="white"/>
</mask>
<g mask="url(#mask0_16_187)">
<path id="Fill 1" fill-rule="evenodd" clip-rule="evenodd" d="M19.5019 4.04804V2.53626C19.5019 2.02973 19.166 1.61932 18.7513 1.61932H2.25034C1.83563 1.61932 1.49971 2.02973 1.49971 2.53626V4.04804H19.5019ZM19.5019 5.66684H1.49971V14.4637C1.49971 14.9703 1.83563 15.3807 2.25034 15.3807H6.37622L8.01641 17H2.24982C1.00724 17 0 15.7978 0 14.3157V2.68484C0 1.20215 1.00724 0 2.25034 0H18.7513C19.9944 0 21.0021 1.20215 21.0021 2.68484V14.3157C21.0021 15.7978 19.9944 17 18.7513 17H13.022L14.6612 15.3807H18.7513C19.166 15.3807 19.5019 14.9703 19.5019 14.4637V5.66684Z" fill="black"/>
</g>
</g>
<path id="Fill 3" fill-rule="evenodd" clip-rule="evenodd" d="M11.3895 14.2145L12.5186 13.1775C12.8609 12.8627 13.4121 12.8669 13.7494 13.1858C14.0872 13.5053 14.0828 14.0184 13.7404 14.3332L11.2711 16.5998C11.1086 16.8511 10.8148 17.0036 10.4999 16.9999C10.1844 17.0036 9.89065 16.8516 9.72815 16.5998L7.25934 14.3332C6.91703 14.0184 6.91312 13.5053 7.25041 13.1858C7.5877 12.8669 8.13886 12.8627 8.48118 13.1775L9.61088 14.2151V9.81194C9.61032 9.59028 9.70749 9.3785 9.87892 9.22552C10.0504 9.07254 10.2821 8.99136 10.5189 9.00073C10.9997 9.00073 11.3895 9.36393 11.3895 9.81194V14.2145Z" fill="black"/>
</g>
</svg>
